<svg viewBox="0 0 24 24" fill="currentColor" xmlns="http://www.w3.org/2000/svg">
<path fill-rule="evenodd" clip-rule="evenodd" d="M6.94601 5.99192C7.19996 5.53918 7.66425 5.25 8.18182 5.25C8.70673 5.25 9.18659 5.54588 9.43679 5.99192L10.745 5.99192C10.9952 5.54589 11.4751 5.25 12 5.25C12.5322 5.25 13.0276 5.55237 13.2741 5.99192H14.5824C14.8363 5.53918 15.3006 5.25 15.8182 5.25C16.5874 5.25 17.25 5.89965 17.25 6.75C17.25 7.60035 16.5874 8.25 15.8182 8.25C15.3006 8.25 14.8363 7.96082 14.5824 7.50808H13.2741C13.0276 7.94763 12.5322 8.25 12 8.25C11.4751 8.25 10.9952 7.95411 10.745 7.50808H9.43679C9.18659 7.95412 8.70673 8.25 8.18182 8.25C7.66425 8.25 7.19996 7.96082 6.94601 7.50808C6.82205 7.2871 6.75 7.02893 6.75 6.75C6.75 6.47107 6.82205 6.2129 6.94601 5.99192ZM8.18182 3.75C7.08423 3.75 6.1383 4.36577 5.63777 5.25808C5.39044 5.69899 5.25 6.20929 5.25 6.75C5.25 7.29071 5.39044 7.80101 5.63777 8.24192C5.9002 8.70975 6.28505 9.10157 6.75 9.36847V19.8718L7.95341 21H16.0466L17.25 19.8718V18C18.4926 18 19.5 16.9926 19.5 15.75V12.75C19.5 11.5074 18.4926 10.5 17.25 10.5V9.36944C18.1508 8.85242 18.75 7.86384 18.75 6.75C18.75 5.11507 17.459 3.75 15.8182 3.75C15.0917 3.75 14.4317 4.01974 13.9233 4.46086C13.3994 4.0163 12.7199 3.75 12 3.75C11.2768 3.75 10.6071 4.01801 10.0909 4.46088C9.57475 4.01801 8.90503 3.75 8.18182 3.75ZM15.75 9.74921C15.0505 9.7329 14.4158 9.46642 13.9233 9.03914C13.3994 9.4837 12.7199 9.75 12 9.75C11.2768 9.75 10.6071 9.48199 10.0909 9.03912C9.59101 9.46804 8.94707 9.73294 8.25 9.74921V19.222L8.54659 19.5H15.4534L15.75 19.222V9.74921ZM18 12.75V15.75C18 16.1642 17.6642 16.5 17.25 16.5V12C17.6642 12 18 12.3358 18 12.75ZM9.75 17.25V11.25H11.25V17.25H9.75ZM12.75 11.25V17.25H14.25V11.25H12.75Z"/>
</svg>

